<svg width="1440" height="900" viewBox="0 0 1440 900" fill="none" xmlns="http://www.w3.org/2000/svg">
<rect width="1440" height="900" fill="white" fill-opacity="0.15"/>
<path d="M347.428 517H318.424V386.658H347.428V517ZM468.014 517V466.243C468.014 462.376 467.56 459.021 466.651 456.18C465.743 453.309 464.308 450.936 462.345 449.061C460.411 447.156 457.921 445.735 454.874 444.798C451.827 443.86 448.165 443.392 443.888 443.392C440.519 443.392 437.369 443.611 434.439 444.051C431.51 444.461 428.771 445.018 426.222 445.721C423.673 446.424 421.285 447.244 419.059 448.182C416.832 449.119 414.723 450.101 412.73 451.126V517H384.474V424.671H409.171L411.148 435.262C413.492 433.152 416.085 431.263 418.927 429.593C421.769 427.923 424.815 426.517 428.067 425.374C431.319 424.202 434.762 423.309 438.395 422.693C442.057 422.078 445.865 421.771 449.82 421.771C453.922 421.771 457.921 422.02 461.817 422.518C465.714 423.016 469.376 423.865 472.804 425.066C476.261 426.238 479.425 427.835 482.296 429.856C485.167 431.849 487.628 434.368 489.679 437.415C491.759 440.433 493.37 444.021 494.513 448.182C495.685 452.342 496.271 457.161 496.271 462.64V517H468.014ZM605.343 514.319C603.585 514.935 601.505 515.535 599.103 516.121C596.7 516.707 594.137 517.22 591.412 517.659C588.717 518.128 585.948 518.494 583.106 518.758C580.265 519.021 577.54 519.153 574.933 519.153C567.989 519.153 562.013 518.421 557.003 516.956C551.993 515.491 547.862 513.309 544.61 510.408C541.388 507.508 539 503.904 537.447 499.598C535.924 495.291 535.162 490.296 535.162 484.612V444.842H514.64V424.671H536.217L539.117 401.6H562.716V424.671H604.64V444.842H562.716V481.36C562.716 484.202 563.009 486.619 563.595 488.611C564.21 490.574 565.221 492.186 566.627 493.445C568.033 494.676 569.879 495.584 572.164 496.17C574.479 496.727 577.32 497.005 580.689 497.005C583.121 497.005 585.523 496.917 587.896 496.741C590.27 496.536 592.525 496.287 594.664 495.994C596.832 495.701 598.824 495.364 600.641 494.983C602.457 494.603 604.024 494.207 605.343 493.797V514.319ZM726.544 511.067C723.878 512.386 720.772 513.572 717.228 514.627C713.683 515.682 709.889 516.575 705.846 517.308C701.832 518.069 697.657 518.655 693.321 519.065C688.985 519.476 684.708 519.681 680.489 519.681C673.897 519.681 667.862 519.124 662.384 518.011C656.905 516.897 651.983 515.33 647.618 513.309C643.253 511.258 639.444 508.782 636.192 505.882C632.94 502.981 630.23 499.744 628.062 496.17C625.895 492.566 624.269 488.685 623.185 484.524C622.13 480.335 621.603 475.926 621.603 471.297C621.603 466.961 622.086 462.728 623.053 458.597C624.049 454.437 625.558 450.525 627.579 446.863C629.601 443.201 632.149 439.832 635.226 436.756C638.302 433.68 641.92 431.028 646.08 428.802C650.27 426.575 655.03 424.847 660.362 423.616C665.694 422.386 671.612 421.771 678.116 421.771C684.708 421.771 690.685 422.342 696.046 423.484C701.437 424.598 706.227 426.18 710.416 428.23C714.635 430.281 718.268 432.757 721.314 435.657C724.391 438.528 726.925 441.736 728.917 445.281C730.938 448.797 732.433 452.605 733.399 456.707C734.366 460.779 734.85 465.042 734.85 469.495C734.85 470.345 734.835 471.165 734.806 471.956C734.776 472.718 734.732 473.465 734.674 474.197C734.645 474.93 734.586 475.618 734.498 476.263C734.439 476.907 734.366 477.522 734.278 478.108H650.211C650.562 481.214 651.456 484.012 652.892 486.502C654.356 488.992 656.437 491.116 659.132 492.874C661.827 494.603 665.196 495.936 669.239 496.873C673.282 497.811 678.102 498.279 683.697 498.279C687.74 498.279 691.754 498.104 695.738 497.752C699.723 497.371 703.546 496.858 707.208 496.214C710.899 495.54 714.371 494.764 717.623 493.885C720.904 492.977 723.878 491.98 726.544 490.896V511.067ZM705.846 460.662C705.172 457.41 704.029 454.598 702.418 452.225C700.836 449.852 698.844 447.889 696.441 446.336C694.068 444.783 691.329 443.641 688.224 442.908C685.118 442.146 681.749 441.766 678.116 441.766C674.483 441.766 671.129 442.146 668.053 442.908C664.977 443.641 662.252 444.783 659.879 446.336C657.535 447.889 655.572 449.852 653.99 452.225C652.408 454.598 651.28 457.41 650.606 460.662H705.846ZM760.821 517V424.671H786.573L787.672 441.59C789.166 438.748 790.924 436.141 792.945 433.768C794.967 431.395 797.311 429.344 799.977 427.615C802.672 425.887 805.704 424.539 809.073 423.572C812.442 422.605 816.222 422.122 820.411 422.122C822.696 422.122 825.025 422.269 827.398 422.562C829.801 422.825 831.91 423.221 833.727 423.748V448.226C832.73 448.021 831.603 447.83 830.343 447.654C829.083 447.479 827.765 447.332 826.388 447.215C825.04 447.068 823.663 446.966 822.257 446.907C820.851 446.849 819.518 446.819 818.258 446.819C815.738 446.819 813.365 446.98 811.139 447.303C808.941 447.596 806.891 448.021 804.986 448.577C803.082 449.104 801.324 449.749 799.713 450.511C798.102 451.272 796.622 452.107 795.274 453.016C793.956 453.895 792.784 454.847 791.759 455.872C790.733 456.897 789.84 457.952 789.078 459.036V517H760.821ZM855.743 517V424.671H884V517H855.743ZM855.743 411.18V386.658H884V411.18H855.743ZM973.209 519.9C966.559 519.9 960.406 519.402 954.752 518.406C949.127 517.439 944.029 516.004 939.459 514.1C934.889 512.166 930.86 509.808 927.374 507.024C923.888 504.212 920.958 500.989 918.585 497.356C916.241 493.694 914.469 489.637 913.268 485.184C912.066 480.73 911.466 475.911 911.466 470.726C911.466 465.774 912.066 461.131 913.268 456.795C914.469 452.459 916.241 448.475 918.585 444.842C920.958 441.209 923.888 437.972 927.374 435.13C930.86 432.259 934.889 429.842 939.459 427.879C944.029 425.887 949.127 424.378 954.752 423.353C960.406 422.298 966.559 421.771 973.209 421.771C979.889 421.771 986.056 422.269 991.71 423.265C997.364 424.231 1002.48 425.682 1007.05 427.615C1011.65 429.52 1015.67 431.878 1019.13 434.69C1022.62 437.474 1025.53 440.696 1027.88 444.358C1030.22 447.991 1031.98 452.034 1033.15 456.487C1034.35 460.911 1034.95 465.716 1034.95 470.901C1034.95 475.853 1034.35 480.511 1033.15 484.876C1031.95 489.212 1030.16 493.196 1027.79 496.829C1025.45 500.433 1022.53 503.67 1019.04 506.541C1015.56 509.412 1011.53 511.844 1006.96 513.836C1002.39 515.799 997.276 517.293 991.622 518.318C985.997 519.373 979.859 519.9 973.209 519.9ZM973.209 499.158C978.131 499.158 982.599 498.514 986.612 497.225C990.655 495.906 994.112 494.031 996.983 491.6C999.854 489.168 1002.07 486.209 1003.62 482.723C1005.2 479.207 1005.99 475.267 1005.99 470.901C1005.99 466.536 1005.2 462.61 1003.62 459.124C1002.07 455.608 999.854 452.62 996.983 450.159C994.112 447.698 990.655 445.809 986.612 444.49C982.599 443.143 978.131 442.469 973.209 442.469C968.316 442.469 963.849 443.128 959.806 444.446C955.792 445.735 952.35 447.61 949.479 450.071C946.607 452.503 944.381 455.462 942.799 458.948C941.246 462.435 940.47 466.36 940.47 470.726C940.47 475.091 941.246 479.031 942.799 482.547C944.381 486.062 946.607 489.051 949.479 491.512C952.35 493.973 955.792 495.862 959.806 497.181C963.849 498.499 968.316 499.158 973.209 499.158ZM1062.29 517V424.671H1088.04L1089.14 441.59C1090.63 438.748 1092.39 436.141 1094.41 433.768C1096.43 431.395 1098.78 429.344 1101.44 427.615C1104.14 425.887 1107.17 424.539 1110.54 423.572C1113.91 422.605 1117.69 422.122 1121.88 422.122C1124.16 422.122 1126.49 422.269 1128.86 422.562C1131.27 422.825 1133.38 423.221 1135.19 423.748V448.226C1134.2 448.021 1133.07 447.83 1131.81 447.654C1130.55 447.479 1129.23 447.332 1127.85 447.215C1126.5 447.068 1125.13 446.966 1123.72 446.907C1122.32 446.849 1120.98 446.819 1119.72 446.819C1117.2 446.819 1114.83 446.98 1112.6 447.303C1110.41 447.596 1108.36 448.021 1106.45 448.577C1104.55 449.104 1102.79 449.749 1101.18 450.511C1099.57 451.272 1098.09 452.107 1096.74 453.016C1095.42 453.895 1094.25 454.847 1093.22 455.872C1092.2 456.897 1091.3 457.952 1090.54 459.036V517H1062.29Z" fill="#38FF06"/>
</svg>
