<svg width="40" height="40" viewBox="0 0 40 40" fill="none" xmlns="http://www.w3.org/2000/svg">
<g id="GitHub">
<g id="GitHub_2">
<path id="Exclude" fill-rule="evenodd" clip-rule="evenodd" d="M26.1854 39.0232C24.2374 39.6567 22.1584 39.9992 20 39.9992C17.8401 39.9992 15.7598 39.6563 13.8106 39.0219C14.711 39.1298 15.0437 38.5436 15.0437 38.0374C15.0437 37.8171 15.04 37.4284 15.0349 36.9085C15.0291 36.3069 15.0216 35.5296 15.0162 34.6339C9.45248 35.8433 8.27873 31.9507 8.27873 31.9507C7.36998 29.6392 6.05873 29.0237 6.05873 29.0237C4.24248 27.7815 6.19623 27.8068 6.19623 27.8068C8.20248 27.9482 9.25873 29.8694 9.25873 29.8694C11.0437 32.9279 13.94 32.0448 15.08 31.5318C15.2612 30.2385 15.7787 29.3564 16.35 28.8562C11.9087 28.3509 7.23998 26.6347 7.23998 18.9657C7.23998 16.7803 8.01873 14.9942 9.29873 13.5944C9.09248 13.088 8.40623 11.054 9.49373 8.2983C9.49373 8.2983 11.1737 7.76037 14.9937 10.3497C16.59 9.90555 18.3 9.6844 20.0012 9.67537C21.7 9.68409 23.4112 9.90555 25.0087 10.3497C28.8262 7.76037 30.5025 8.2983 30.5025 8.2983C31.5937 11.054 30.9075 13.088 30.7012 13.5944C31.9837 14.9942 32.7575 16.7803 32.7575 18.9657C32.7575 26.6534 28.0812 28.346 23.6262 28.8412C24.3437 29.4592 24.9837 30.6799 24.9837 32.5475C24.9837 34.3367 24.9726 35.8942 24.9651 36.9263C24.9615 37.4377 24.9587 37.8201 24.9587 38.0377C24.9587 38.5462 25.2834 39.1337 26.1854 39.0232Z" fill="white"/>
</g>
</g>
</svg>
