<svg width="41" height="40" viewBox="0 0 41 40" fill="none" xmlns="http://www.w3.org/2000/svg">
<g id="Instagram">
<g id="Instagram_2">
<path id="Vector" d="M16.6646 20C16.6646 17.6989 18.5295 15.833 20.8306 15.833C23.1317 15.833 24.9976 17.6989 24.9976 20C24.9976 22.3011 23.1317 24.167 20.8306 24.167C18.5295 24.167 16.6646 22.3011 16.6646 20ZM14.412 20C14.412 23.545 17.2856 26.4186 20.8306 26.4186C24.3756 26.4186 27.2492 23.545 27.2492 20C27.2492 16.455 24.3756 13.5814 20.8306 13.5814C17.2856 13.5814 14.412 16.455 14.412 20ZM26.0033 13.3269C26.0032 13.6236 26.091 13.9136 26.2557 14.1604C26.4205 14.4071 26.6546 14.5994 26.9287 14.7131C27.2027 14.8267 27.5043 14.8566 27.7953 14.7988C28.0863 14.741 28.3536 14.5983 28.5635 14.3886C28.7734 14.1789 28.9163 13.9117 28.9743 13.6207C29.0323 13.3298 29.0027 13.0282 28.8893 12.754C28.7759 12.4799 28.5837 12.2456 28.3371 12.0806C28.0905 11.9157 27.8005 11.8276 27.5039 11.8275L27.5033 11.8275C27.1056 11.8277 26.7243 11.9857 26.443 12.2668C26.1618 12.548 26.0036 12.9292 26.0033 13.3269V13.3269ZM15.7806 30.1747C14.5619 30.1192 13.8995 29.9162 13.4593 29.7447C12.8757 29.5175 12.4593 29.2469 12.0215 28.8097C11.5837 28.3725 11.3127 27.9565 11.0865 27.3729C10.9149 26.9329 10.7119 26.2703 10.6565 25.0516C10.5959 23.734 10.5838 23.3382 10.5838 20.0001C10.5838 16.662 10.5969 16.2673 10.6565 14.9486C10.712 13.7299 10.9165 13.0686 11.0865 12.6273C11.3137 12.0437 11.5843 11.6273 12.0215 11.1895C12.4587 10.7517 12.8747 10.4807 13.4593 10.2545C13.8993 10.0829 14.5619 9.8799 15.7806 9.8245C17.0982 9.7639 17.494 9.7518 20.8306 9.7518C24.1672 9.7518 24.5634 9.7649 25.8821 9.8245C27.1008 9.88 27.7621 10.0845 28.2034 10.2545C28.787 10.4807 29.2034 10.7523 29.6412 11.1895C30.079 11.6267 30.349 12.0437 30.5762 12.6273C30.7478 13.0673 30.9508 13.7299 31.0062 14.9486C31.0668 16.2673 31.0789 16.662 31.0789 20.0001C31.0789 23.3382 31.0668 23.7329 31.0062 25.0516C30.9507 26.2703 30.7467 26.9327 30.5762 27.3729C30.349 27.9565 30.0784 28.3729 29.6412 28.8097C29.204 29.2465 28.787 29.5175 28.2034 29.7447C27.7634 29.9163 27.1008 30.1193 25.8821 30.1747C24.5645 30.2353 24.1687 30.2474 20.8306 30.2474C17.4925 30.2474 17.0978 30.2353 15.7806 30.1747V30.1747ZM15.6771 7.5757C14.3464 7.6363 13.4371 7.8473 12.643 8.1563C11.8206 8.4754 11.1244 8.9035 10.4287 9.5981C9.73297 10.2927 9.30597 10.99 8.98687 11.8124C8.67787 12.607 8.46687 13.5158 8.40627 14.8465C8.34467 16.1793 8.33057 16.6054 8.33057 20C8.33057 23.3946 8.34467 23.8207 8.40627 25.1535C8.46687 26.4843 8.67787 27.393 8.98687 28.1876C9.30597 29.0095 9.73307 29.7076 10.4287 30.4019C11.1243 31.0962 11.8206 31.5237 12.643 31.8437C13.4386 32.1527 14.3464 32.3637 15.6771 32.4243C17.0106 32.4849 17.436 32.5 20.8306 32.5C24.2252 32.5 24.6513 32.4859 25.9841 32.4243C27.3149 32.3637 28.2236 32.1527 29.0182 31.8437C29.8401 31.5237 30.5368 31.0965 31.2325 30.4019C31.9282 29.7073 32.3543 29.0095 32.6743 28.1876C32.9833 27.393 33.1953 26.4842 33.2549 25.1535C33.3155 23.8197 33.3296 23.3946 33.3296 20C33.3296 16.6054 33.3155 16.1793 33.2549 14.8465C33.1943 13.5157 32.9833 12.6065 32.6743 11.8124C32.3543 10.9905 31.9271 10.2938 31.2325 9.5981C30.5379 8.9024 29.8401 8.4754 29.0192 8.1563C28.2236 7.8473 27.3148 7.6353 25.9851 7.5757C24.6523 7.5151 24.2262 7.5 20.8316 7.5C17.437 7.5 17.0106 7.5141 15.6771 7.5757Z" fill="white"/>
</g>
</g>
</svg>
