<svg width="41" height="40" viewBox="0 0 41 40" fill="none" xmlns="http://www.w3.org/2000/svg">
<g id="Telegram">
<g id="Telegram_2">
<path id="Exclude" fill-rule="evenodd" clip-rule="evenodd" d="M25.1064 29.9032C26.5043 30.5148 27.0285 29.2334 27.0285 29.2334L30.7272 10.6526C30.6981 9.40032 29.0089 10.1575 29.0089 10.1575L8.30218 18.283C8.30218 18.283 7.31198 18.6325 7.39935 19.244C7.48672 19.8556 8.27305 20.1469 8.27305 20.1469L13.4861 21.8943C13.4861 21.8943 15.0588 27.0491 15.3792 28.0393C15.6704 29.0004 15.9325 29.0295 15.9325 29.0295C16.2238 29.146 16.4859 28.9422 16.4859 28.9422L19.8642 25.8842L25.1064 29.9032ZM26.0092 13.9432C26.0092 13.9432 26.7373 13.5063 26.7082 13.9432C26.7082 13.9432 26.8247 14.0014 26.4461 14.4092C26.0966 14.7587 17.8547 22.156 16.748 23.1462C16.6606 23.2044 16.6024 23.2918 16.6024 23.4083L16.282 26.1459C16.2238 26.4372 15.8452 26.4663 15.7578 26.2042L14.389 21.7192C14.3307 21.5444 14.389 21.3405 14.5637 21.2241L26.0092 13.9432Z" fill="white"/>
</g>
</g>
</svg>
