<svg width="41" height="40" viewBox="0 0 41 40" fill="none" xmlns="http://www.w3.org/2000/svg">
<g id="Vkontakte (VK)">
<g id="Vkontakte (VK)_2">
<path id="Vector" fill-rule="evenodd" clip-rule="evenodd" d="M32.8914 13.7784C33.0769 13.1603 32.8914 12.7061 32.0091 12.7061L29.0918 12.7061C28.3499 12.7061 28.0082 13.0984 27.8227 13.5312C27.8227 13.5312 26.339 17.1473 24.2373 19.4962C23.5574 20.1761 23.2483 20.3922 22.8774 20.3922C22.6919 20.3922 22.4235 20.1761 22.4235 19.5581L22.4235 13.7784C22.4235 13.0365 22.2083 12.7061 21.59 12.7061L17.0056 12.7061C16.5422 12.7061 16.2634 13.0503 16.2634 13.3766C16.2634 14.0799 17.314 14.242 17.4224 16.22L17.4224 20.5162C17.4224 21.4581 17.2523 21.629 16.8814 21.629C15.8924 21.629 13.4869 17.9965 12.0599 13.8403C11.7802 13.0324 11.4997 12.7061 10.7542 12.7061L7.83681 12.7061C7.00328 12.7061 6.83658 13.0984 6.83658 13.5312C6.83658 14.3039 7.82577 18.1365 11.4418 23.2052C13.8528 26.6664 17.249 28.5431 20.3397 28.5431C22.1943 28.5431 22.4235 28.1263 22.4235 27.4084L22.4235 24.7922C22.4235 23.9587 22.5992 23.7924 23.1862 23.7924C23.6192 23.7924 24.3609 24.0087 26.0919 25.6776C28.0699 27.6554 28.3958 28.5431 29.5085 28.5431L32.4259 28.5431C33.2594 28.5431 33.6762 28.1263 33.4357 27.3038C33.1727 26.4841 32.2283 25.295 30.9751 23.8851C30.2952 23.0814 29.2751 22.216 28.9663 21.7834C28.5335 21.227 28.6571 20.9799 28.9663 20.4856C28.9663 20.4856 32.5205 15.4786 32.8914 13.7786L32.8914 13.7784Z" fill="white"/>
</g>
</g>
</svg>
